<!-- Steam Main Capsule: 616x353px -->
<svg width="616" height="353" viewBox="0 0 616 353" xmlns="http://www.w3.org/2000/svg">
  <defs>
    <linearGradient id="bgGradient" x1="0%" y1="0%" x2="100%" y2="100%">
      <stop offset="0%" style="stop-color:#001100;stop-opacity:1" />
      <stop offset="50%" style="stop-color:#000000;stop-opacity:1" />
      <stop offset="100%" style="stop-color:#001100;stop-opacity:1" />
    </linearGradient>
    <filter id="textGlow">
      <feGaussianBlur stdDeviation="3" result="coloredBlur"/>
      <feMerge> 
        <feMergeNode in="coloredBlur"/>
        <feMergeNode in="SourceGraphic"/>
      </feMerge>
    </filter>
    <pattern id="gridPattern" width="20" height="20" patternUnits="userSpaceOnUse">
      <path d="M 20 0 L 0 0 0 20" fill="none" stroke="#00ff00" stroke-width="0.3" opacity="0.2"/>
    </pattern>
  </defs>
  
  <!-- Background -->
  <rect width="616" height="353" fill="url(#bgGradient)"/>
  <rect width="616" height="353" fill="url(#gridPattern)"/>
  
  <!-- Main title -->
  <text x="308" y="120" text-anchor="middle" font-family="Courier New, monospace" font-size="72" font-weight="bold" fill="#00ff00" filter="url(#textGlow)">
    ManagerX
  </text>
  
  <!-- Subtitle -->
  <text x="308" y="160" text-anchor="middle" font-family="Courier New, monospace" font-size="24" fill="#00ff00" opacity="0.8">
    O Gerenciador de Futebol Definitivo
  </text>
  
  <!-- Feature highlights -->
  <g transform="translate(50, 200)">
    <text x="0" y="0" font-family="Courier New, monospace" font-size="18" fill="#00ff00">
      ⚽ Nostalgia CM 01/02 + IA Moderna
    </text>
    <text x="0" y="30" font-family="Courier New, monospace" font-size="18" fill="#00ff00">
      🎯 Táticas Profundas • 6 Ligas • 200 Clubes
    </text>
    <text x="0" y="60" font-family="Courier New, monospace" font-size="18" fill="#00ff00">
      🤖 Assistente IA • Offline-First • 10 Temporadas
    </text>
  </g>
  
  <!-- Football field visualization -->
  <g transform="translate(450, 220)" opacity="0.6">
    <!-- Field outline -->
    <rect x="0" y="0" width="120" height="80" fill="none" stroke="#00ff00" stroke-width="2"/>
    <!-- Center circle -->
    <circle cx="60" cy="40" r="15" fill="none" stroke="#00ff00" stroke-width="1"/>
    <!-- Center line -->
    <line x1="60" y1="0" x2="60" y2="80" stroke="#00ff00" stroke-width="1"/>
    <!-- Penalty areas -->
    <rect x="0" y="20" width="25" height="40" fill="none" stroke="#00ff00" stroke-width="1"/>
    <rect x="95" y="20" width="25" height="40" fill="none" stroke="#00ff00" stroke-width="1"/>
    
    <!-- Player positions (4-4-2) -->
    <circle cx="15" cy="40" r="2" fill="#00ff00"/> <!-- GK -->
    <circle cx="35" cy="20" r="2" fill="#00ff00"/> <!-- DF -->
    <circle cx="35" cy="40" r="2" fill="#00ff00"/> <!-- DF -->
    <circle cx="35" cy="60" r="2" fill="#00ff00"/> <!-- DF -->
    <circle cx="35" cy="30" r="2" fill="#00ff00"/> <!-- DF -->
    <circle cx="60" cy="25" r="2" fill="#00ff00"/> <!-- MF -->
    <circle cx="60" cy="55" r="2" fill="#00ff00"/> <!-- MF -->
    <circle cx="85" cy="25" r="2" fill="#00ff00"/> <!-- MF -->
    <circle cx="85" cy="55" r="2" fill="#00ff00"/> <!-- MF -->
    <circle cx="105" cy="30" r="2" fill="#00ff00"/> <!-- ST -->
    <circle cx="105" cy="50" r="2" fill="#00ff00"/> <!-- ST -->
  </g>
  
  <!-- Version badge -->
  <g transform="translate(520, 320)">
    <rect x="0" y="0" width="80" height="25" fill="rgba(0,255,0,0.1)" stroke="#00ff00" stroke-width="1"/>
    <text x="40" y="17" text-anchor="middle" font-family="Courier New, monospace" font-size="12" fill="#00ff00">
      BETA v0.1
    </text>
  </g>
</svg>
