<svg width="64" height="64" viewBox="0 0 64 64" xmlns="http://www.w3.org/2000/svg">
  <defs>
    <linearGradient id="greenGlow64" x1="0%" y1="0%" x2="100%" y2="100%">
      <stop offset="0%" style="stop-color:#00ff00;stop-opacity:1" />
      <stop offset="100%" style="stop-color:#009900;stop-opacity:1" />
    </linearGradient>
    <filter id="glow64">
      <feGaussianBlur stdDeviation="1" result="coloredBlur"/>
      <feMerge> 
        <feMergeNode in="coloredBlur"/>
        <feMergeNode in="SourceGraphic"/>
      </feMerge>
    </filter>
  </defs>
  
  <rect width="64" height="64" fill="#000000"/>
  
  <!-- Grid pattern -->
  <defs>
    <pattern id="grid64" width="8" height="8" patternUnits="userSpaceOnUse">
      <path d="M 8 0 L 0 0 0 8" fill="none" stroke="#00ff00" stroke-width="0.3" opacity="0.3"/>
    </pattern>
  </defs>
  <rect width="64" height="64" fill="url(#grid64)"/>
  
  <!-- M logo with glow -->
  <g filter="url(#glow64)">
    <!-- Left pillar -->
    <rect x="10" y="12" width="6" height="35" fill="url(#greenGlow64)"/>
    <!-- Right pillar -->
    <rect x="48" y="12" width="6" height="35" fill="url(#greenGlow64)"/>
    <!-- Left diagonal -->
    <polygon points="16,12 26,28 22,28 16,18" fill="url(#greenGlow64)"/>
    <!-- Right diagonal -->
    <polygon points="48,12 38,28 42,28 48,18" fill="url(#greenGlow64)"/>
    <!-- Center connection -->
    <polygon points="26,28 32,20 38,28 36,32 32,24 28,32" fill="url(#greenGlow64)"/>
  </g>
  
  <!-- Football with details -->
  <g transform="translate(32,54)">
    <circle cx="0" cy="0" r="6" fill="none" stroke="#00ff00" stroke-width="2" filter="url(#glow64)"/>
    <polygon points="-3,-3 3,-3 4,0 3,3 -3,3 -4,0" fill="none" stroke="#00ff00" stroke-width="1"/>
    <circle cx="0" cy="0" r="1" fill="#00ff00"/>
  </g>
</svg>
